PathFileType	4	(X/Y/Z)	C:\Users\ebm\Documents\Erivelton\Erivelton\propulsion1.trc
DataRate	CameraRate	NumFrames	NumMarkers	Units	OrigDataRate	OrigDataStartFrame	OrigNumFrames
150.00	150.00	      7	28	mm	150.00	296	      1182
Frame#	Time	IJ			PX			C7			T8			RAC			RAS			RPS			RAI			RPI			RLE			RME			RRS			RUS			R3M			R5M			LAC			LAS			LPS			LAI			LPI			LLE			LME			LRS			LUS			L3M			L5M			RW			LW			V_mid_elbow_r			V_mid_elbow_l			V_mid_wrist_r			V_mid_wrist_l			V_mid_trunk_low			V_mid_trunk_upp			
		X1	Y1	Z1	X2	Y2	Z2	X3	Y3	Z3	X4	Y4	Z4	X5	Y5	Z5	X6	Y6	Z6	X7	Y7	Z7	X8	Y8	Z8	X9	Y9	Z9	X10	Y10	Z10	X11	Y11	Z11	X12	Y12	Z12	X13	Y13	Z13	X14	Y14	Z14	X15	Y15	Z15	X16	Y16	Z16	X17	Y17	Z17	X18	Y18	Z18	X19	Y19	Z19	X20	Y20	Z20	X21	Y21	Z21	X22	Y22	Z22	X23	Y23	Z23	X24	Y24	Z24	X25	Y25	Z25	X26	Y26	Z26	X27	Y27	Z27	X28	Y28	Z28	

296	1.967	-635.82019	1002.51563	49.61409	-651.52948	832.70117	48.41248	-742.15881	1123.71960	53.11380	-860.68988	950.14392	54.08872	-697.13965	1051.35010	243.34084	-730.76892	882.14703	309.56375	-764.89203	915.19690	334.52377	-769.94958	817.70056	340.16400	-799.74438	851.67584	364.08072	-850.38763	784.66772	390.74881	-887.07605	760.85712	316.13443	-651.91229	606.99554	326.54868	-683.27710	593.15094	373.95981	-605.34540	529.25922	372.44016	-642.95013	521.70605	382.13791	-737.80017	1058.33679	-144.30360	-770.37103	913.27759	-243.66606	-815.23663	932.76868	-244.09602	-791.75073	846.63873	-284.73380	-843.62140	866.56439	-287.47031	-840.56104	795.85455	-318.79254	-886.15533	769.18182	-252.74297	-668.59778	605.69293	-239.34694	-696.99329	572.25018	-297.77603	-613.41156	533.23096	-298.54282	-653.13550	516.75922	-305.56888	-726.82635	301.34174	352.38483	-723.70941	297.90338	-276.52655	
297	1.973	-629.18372	1002.53217	49.52448	-645.31342	832.69305	48.41854	-735.29608	1123.74280	53.06501	-853.90637	950.16003	53.78922	-690.03229	1050.89417	243.09782	-721.49518	880.90894	308.81647	-755.78204	913.38312	334.61023	-759.18182	815.98376	339.89877	-789.19434	849.08459	364.22348	-839.05994	781.65424	390.77786	-876.00079	757.52368	316.24707	-638.71411	605.53107	326.58612	-670.39612	591.83661	373.77899	-593.31848	526.89063	372.46973	-631.28296	520.37842	383.49045	-730.66809	1057.87891	-144.65123	-760.92023	911.73669	-243.92615	-805.95703	930.86475	-245.10445	-781.19269	844.67609	-284.72415	-833.34741	864.00824	-288.35614	-829.38605	793.38892	-319.11746	-875.16254	766.40820	-253.45207	-655.77631	604.58478	-239.64789	-684.61548	571.03723	-297.95200	-601.61072	530.83777	-298.67734	-641.70026	515.19727	-305.73917	-719.76239	301.42218	351.59140	-717.17206	297.90936	-276.45197	
298	1.980	-622.29767	1002.58301	49.41288	-636.30212	833.75366	48.37696	-728.37964	1123.72974	53.02755	-846.88800	950.06464	54.02569	-683.26758	1050.44531	243.48880	-712.13641	879.70374	308.15430	-746.51440	911.56628	334.59384	-748.40857	814.21106	338.67572	-778.78058	846.64282	363.99619	-827.56049	778.50940	391.02942	-864.58167	753.92926	316.55405	-625.70996	603.90552	326.83926	-657.43884	590.44086	373.75290	-581.37964	523.86438	371.73633	-619.29456	518.40851	383.58643	-723.47754	1057.35999	-145.06912	-751.45135	910.22595	-244.34610	-796.67358	928.91156	-246.11653	-770.55884	842.64099	-284.89716	-822.90582	861.37939	-289.09372	-818.16168	790.96326	-319.50003	-864.42120	763.18646	-254.06042	-643.00751	603.41156	-239.76193	-672.17969	569.67889	-297.98840	-589.71210	528.33179	-298.69882	-630.17145	513.42432	-305.84140	-712.89563	301.58295	351.67657	-710.69263	298.02969	-276.57657	
299	1.987	-615.43469	1002.59753	49.35393	-629.72546	833.65540	48.40804	-721.30872	1123.48499	52.87613	-840.21515	950.07806	53.62695	-675.78925	1049.84717	243.58707	-702.74323	878.50177	307.49478	-737.20825	909.74243	334.54242	-737.88513	812.24207	338.55026	-768.20178	844.21100	363.82074	-815.96863	775.35553	390.98584	-853.03204	750.57086	317.03302	-612.40710	602.13336	326.73886	-644.46283	588.96539	373.93015	-569.20544	521.04401	371.84033	-607.24261	516.52429	383.82748	-716.16809	1056.69421	-145.50664	-741.87274	908.62109	-244.60548	-787.34790	926.85455	-247.16428	-759.85767	840.54376	-284.78287	-812.42419	858.78833	-289.82333	-806.77216	788.34009	-319.54404	-853.07104	760.31622	-254.49890	-630.07611	601.80762	-239.89857	-659.66644	568.23132	-298.11636	-577.71924	525.83441	-298.59595	-618.60876	511.52460	-305.92438	-706.33057	301.63300	351.86765	-704.08289	298.06302	-276.55084	
300	1.993	-608.77783	1002.60999	49.29824	-623.10504	833.57654	48.23655	-714.89801	1123.66406	52.76834	-833.74200	950.45758	53.18665	-668.78516	1049.52136	242.98723	-693.12250	877.30487	306.72037	-727.79779	907.94464	334.30914	-727.03442	810.43939	337.90219	-757.52130	841.78638	363.60101	-804.17621	772.27185	390.75861	-841.33295	747.08667	317.25592	-599.16412	600.12640	326.56268	-631.24896	587.28912	373.81726	-556.97162	518.12207	371.76578	-595.13165	514.39374	383.96274	-708.95428	1055.98914	-145.88383	-732.26978	907.08124	-245.00041	-777.84186	924.75049	-248.11378	-749.05103	838.42413	-284.75565	-801.83435	855.98572	-290.39905	-795.27905	785.65625	-319.63910	-841.63348	757.36139	-254.81071	-617.10236	600.40082	-239.87004	-647.10120	566.70886	-298.10992	-565.84564	523.13647	-298.60983	-606.98938	509.53714	-306.05585	-699.33118	301.70148	352.39838	-697.43640	298.11115	-276.53079	
301	2.000	-601.98712	1002.62518	49.11729	-616.05542	833.00208	48.13370	-707.78851	1123.40039	52.58885	-826.61285	950.21094	53.48191	-661.64288	1049.07117	243.01833	-683.68781	876.30005	306.13199	-718.51276	906.16229	334.27707	-716.00183	808.58014	337.07590	-746.67206	839.31000	363.49643	-792.17206	769.16718	390.63104	-829.60284	743.66376	317.04764	-586.07501	597.91022	326.63565	-618.18329	585.37909	373.64661	-544.78619	515.01208	371.83383	-583.03052	512.20953	384.17993	-701.63336	1055.32190	-146.40508	-722.58716	905.41119	-245.25890	-768.36823	922.52533	-248.84943	-738.22162	836.29639	-284.64310	-791.22229	853.20532	-290.86298	-783.66431	782.96277	-319.58069	-829.99829	754.32385	-255.00722	-604.04443	598.46741	-239.98486	-634.49280	565.07513	-298.06561	-553.87476	520.22498	-298.76767	-595.38831	507.57056	-306.05740	-691.95917	301.80661	352.61224	-690.77209	298.18411	-276.50934	
302	2.007	-595.33411	1002.59033	48.84554	-610.18427	832.54047	48.01186	-701.01154	1123.29675	52.46476	-819.61566	950.16370	53.81714	-654.54938	1048.64758	243.05051	-673.96423	875.22125	305.32278	-708.83423	904.36005	334.08682	-704.82318	806.82562	336.20035	-735.72595	836.96448	363.21725	-780.10962	766.06158	390.35110	-817.57147	740.32751	317.24576	-572.70538	595.52332	326.46402	-605.27759	583.12488	373.35367	-532.58459	511.74429	371.74362	-570.97266	509.77646	384.38586	-694.39105	1054.89148	-147.10721	-712.87207	903.70575	-245.35704	-758.82806	920.27112	-249.46368	-727.28912	834.08301	-284.39581	-780.47974	850.35913	-291.09918	-771.94037	780.13422	-319.41196	-818.26465	751.23938	-255.01302	-590.95190	596.71790	-239.69241	-621.73328	563.41345	-298.08548	-541.93011	517.25751	-298.84451	-583.76685	505.47559	-306.21643	-685.13831	301.82401	353.14560	-684.09705	298.24869	-276.48322	
